<svg id="Layer_1" data-name="Layer 1" xmlns="http://www.w3.org/2000/svg" xmlns:xlink="http://www.w3.org/1999/xlink" viewBox="0 0 484 127"><defs><style>.cls-1{fill:none;}.cls-2{clip-path:url(#clip-path);}.cls-3{fill:#1c3d6e;}.cls-4{fill:#02a9e0;}</style><clipPath id="clip-path"><rect class="cls-1" y="15.58" width="484" height="95.83"></rect></clipPath></defs><g class="cls-2"><polygon class="cls-3" points="11.82 37.84 0 15.58 3.96 15.58 13.48 34.68 23.64 15.58 27.6 15.58 15.35 37.84 15.35 54.2 11.82 54.2 11.82 37.84 11.82 37.84"></polygon><path class="cls-3" d="M42.09,38.48c-12.73,2.78-14.44,5.4-14.44,8.93,0,3.05,2.09,4.76,5,4.76s6.68-1.76,9.46-4.6V38.48Zm.54,15.72-.43-3.37c-3.32,2.62-5.83,3.91-10.11,3.91s-7.65-2.67-7.65-7.28c0-7.59,6.21-9,17.82-11.55V34c0-3.7-1.61-5.57-6.37-5.57-3.32,0-6,1.82-8.08,5l-2.14-1.28c2.41-4.5,5.83-6.32,10.33-6.32,6.31,0,9.3,2.57,9.3,8.72V49.12a31,31,0,0,0,.43,5.08Z"></path><polygon class="cls-3" points="53.76 15.58 56.97 15.58 56.97 54.2 53.76 54.2 53.76 15.58 53.76 15.58"></polygon><path class="cls-3" d="M82.58,37.84c-.64-5.73-3.15-9.37-8-9.42-5.67-.05-8.08,5.73-8.13,9.42ZM66.43,40.4c0,6.32,2.62,11.77,8.93,11.77,3.59,0,5.35-1.23,8.13-5.62L86.11,48c-3,4.92-5.72,6.79-11,6.79-7.28,0-11.88-4.65-11.88-14.44,0-8.62,4.39-14.45,11.45-14.45,7.54,0,11.12,5.94,11.12,14.55Z"></path><polygon class="cls-3" points="92.11 15.58 98.04 15.58 116.39 47.78 116.5 47.78 116.5 15.58 120.03 15.58 120.03 54.2 116.39 54.2 95.74 18.47 95.63 18.47 95.63 54.2 92.11 54.2 92.11 15.58 92.11 15.58"></polygon></g><path class="cls-3" d="M145.64,37.84c-.64-5.73-3.15-9.37-8-9.42-5.67-.05-8.08,5.73-8.13,9.42ZM129.49,40.4c0,6.32,2.62,11.77,8.93,11.77,3.59,0,5.35-1.23,8.13-5.62l2.63,1.4c-3,4.92-5.73,6.79-11,6.79-7.28,0-11.88-4.65-11.88-14.44,0-8.62,4.39-14.45,11.45-14.45,7.54,0,11.12,5.94,11.12,14.55Z"></path><g class="cls-2"><polygon class="cls-3" points="152.01 26.39 155.27 26.39 161.37 48.75 161.48 48.75 167.84 26.39 171 26.39 177.2 48.75 177.31 48.75 183.57 26.39 186.88 26.39 178.81 54.2 175.65 54.2 169.39 31.85 169.29 31.85 163.08 54.2 159.76 54.2 152.01 26.39 152.01 26.39"></polygon><polygon class="cls-3" points="192.34 15.58 195.87 15.58 195.87 32.7 216.73 32.7 216.73 15.58 220.26 15.58 220.26 54.2 216.73 54.2 216.73 35.59 195.87 35.59 195.87 54.2 192.34 54.2 192.34 15.58 192.34 15.58"></polygon></g><path class="cls-3" d="M244.11,38.48c-12.73,2.78-14.44,5.4-14.44,8.93,0,3.05,2.09,4.76,5,4.76s6.68-1.76,9.46-4.6V38.48Zm.54,15.72-.43-3.37c-3.32,2.62-5.83,3.91-10.11,3.91s-7.65-2.67-7.65-7.28c0-7.59,6.21-9,17.81-11.55V34c0-3.7-1.6-5.57-6.36-5.57-3.32,0-6,1.82-8.08,5l-2.14-1.28c2.41-4.5,5.83-6.32,10.32-6.32,6.32,0,9.31,2.57,9.31,8.72V49.12a31,31,0,0,0,.43,5.08Z"></path><polygon class="cls-3" points="252.35 26.39 255.77 26.39 263.37 49.28 263.48 49.28 271.18 26.39 274.6 26.39 265.03 54.2 261.87 54.2 252.35 26.39 252.35 26.39"></polygon><path class="cls-3" d="M296.64,37.84c-.65-5.73-3.16-9.37-8-9.42-5.67-.05-8.07,5.73-8.13,9.42ZM280.48,40.4c0,6.32,2.62,11.77,8.94,11.77,3.58,0,5.34-1.23,8.13-5.62l2.62,1.4c-3,4.92-5.73,6.79-11,6.79-7.28,0-11.88-4.65-11.88-14.44,0-8.62,4.39-14.45,11.45-14.45,7.54,0,11.13,5.94,11.13,14.55Z"></path><g class="cls-2"><path class="cls-3" d="M306.37,54.2V26.39h3.21v4.39c3-3.11,5.45-4.93,9.52-4.93,5.78,0,8.24,3.32,8.24,9.37v19h-3.21V35.54c0-4.6-1.39-7.12-5.67-7.12-3.43,0-5.35,2.09-8.88,5.3V54.2Z"></path><polygon class="cls-4" points="335.95 54.2 335.95 15.58 343.33 15.58 343.33 30.99 358.2 30.99 358.2 15.58 365.58 15.58 365.58 54.2 358.2 54.2 358.2 37.62 343.33 37.62 343.33 54.2 335.95 54.2 335.95 54.2"></polygon></g><path class="cls-4" d="M388.68,36.87c-.1-3.85-2.13-6.09-5.34-6.09S378.09,33,378,36.87ZM378,41.37c.1,5.77,2.67,8,5.77,8S388.31,48,390,46.07l4.81,3c-2.56,4-6.31,5.67-11.66,5.67-7.22,0-11.77-5.62-11.77-14.44s4.55-14.45,12.09-14.45c7.28-.05,11.34,6.1,11.34,12.79v2.73Z"></path><g class="cls-2"><path class="cls-4" d="M414.79,40.88c-4.44.86-9.31,1.77-9.31,5.67a3,3,0,0,0,3.21,3.27c2.09,0,4.71-1.77,6.1-2.94v-6Zm.69,13.32-.43-2.4a14.42,14.42,0,0,1-8.66,2.94,7.11,7.11,0,0,1-7.54-7.38c0-6.31,5.13-9.63,15.94-10.91V34.09c0-2.14-1.71-3.31-4.07-3.31a7.13,7.13,0,0,0-6.1,3.42l-4.27-3.26c1.71-3,6.31-5.19,10.37-5.09,7.49.17,10.7,2.89,10.7,11.24v13.1a12.55,12.55,0,0,0,.53,4Z"></path><polygon class="cls-4" points="428.75 54.2 428.75 15.58 435.38 15.58 435.38 54.2 428.75 54.2 428.75 54.2"></polygon><path class="cls-4" d="M444,26.39v-9.2h6.63v9.2h5.46v5.35h-5.46V47.46c0,1.5.75,1.93,2.41,1.93a14.75,14.75,0,0,0,3.05-.53v5.45a42.06,42.06,0,0,1-5.24.43c-4.92,0-6.85-2.46-6.85-6.42V31.74h-3.85V26.39Z"></path><path class="cls-4" d="M461.11,54.2V15.58h6.63v13.8c2-1.71,4.76-3.53,8-3.53,5.56,0,8.24,3.64,8.24,9.31v19h-6.63V36.12c0-3.74-1.18-4.92-3.43-4.92a8.44,8.44,0,0,0-6.2,2.95V54.2Z"></path></g><polygon class="cls-4" points="11.01 90.33 15.19 80.69 20.04 80.69 13.33 95.31 13.33 105.02 8.68 105.02 8.68 95.31 1.98 80.69 6.83 80.69 11.01 90.33 11.01 90.33"></polygon><path class="cls-4" d="M29.17,96.62c-2.8.55-5.86,1.12-5.86,3.58a1.9,1.9,0,0,0,2,2,7.26,7.26,0,0,0,3.84-1.85V96.62Zm.44,8.39-.27-1.51a9.16,9.16,0,0,1-5.46,1.85,4.48,4.48,0,0,1-4.75-4.65c0-4,3.24-6.06,10-6.87V92.35c0-1.35-1.08-2.09-2.56-2.09a4.5,4.5,0,0,0-3.84,2.15l-2.7-2c1.08-1.85,4-3.27,6.54-3.2,4.72.1,6.74,1.82,6.74,7.07v8.26a8,8,0,0,0,.33,2.52Z"></path><polygon class="cls-4" points="37.97 105.02 37.97 80.69 42.15 80.69 42.15 105.02 37.97 105.02 37.97 105.02"></polygon><path class="cls-4" d="M56.46,94.1c-.06-2.43-1.34-3.84-3.36-3.84s-3.31,1.41-3.37,3.84Zm-6.73,2.83c.06,3.64,1.68,5,3.64,5s2.86-.87,3.9-2.09l3,1.89c-1.62,2.49-4,3.57-7.35,3.57-4.55,0-7.41-3.54-7.41-9.1s2.86-9.09,7.61-9.09c4.58,0,7.15,3.84,7.15,8v1.72Z"></path><polygon class="cls-4" points="74.59 105.02 74.59 80.69 79.45 80.69 89.02 97.27 89.08 97.27 89.08 80.69 93.46 80.69 93.46 105.02 88.98 105.02 79.04 87.7 78.97 87.7 78.97 105.02 74.59 105.02 74.59 105.02"></polygon><path class="cls-4" d="M107.92,94.1c-.07-2.43-1.35-3.84-3.37-3.84s-3.3,1.41-3.37,3.84Zm-6.74,2.83c.07,3.64,1.69,5,3.64,5s2.86-.87,3.91-2.09l3,1.89c-1.62,2.49-4,3.57-7.34,3.57-4.55,0-7.42-3.54-7.42-9.1s2.87-9.09,7.62-9.09c4.58,0,7.14,3.84,7.14,8v1.72Z"></path><polygon class="cls-4" points="113.38 87.49 117.36 87.49 119.75 98.41 119.81 98.41 122.34 87.49 126.22 87.49 128.64 98.41 128.71 98.41 131.2 87.49 135.18 87.49 130.66 105.02 126.89 105.02 124.3 94.1 124.23 94.1 121.67 105.02 117.9 105.02 113.38 87.49 113.38 87.49"></polygon><polygon class="cls-4" points="148.63 105.02 148.63 80.69 153.28 80.69 153.28 90.39 162.64 90.39 162.64 80.69 167.29 80.69 167.29 105.02 162.64 105.02 162.64 94.57 153.28 94.57 153.28 105.02 148.63 105.02 148.63 105.02"></polygon><path class="cls-4" d="M180.77,96.62c-2.79.55-5.86,1.12-5.86,3.58a1.9,1.9,0,0,0,2,2,7.26,7.26,0,0,0,3.84-1.85V96.62Zm.44,8.39-.27-1.51a9.16,9.16,0,0,1-5.46,1.85,4.48,4.48,0,0,1-4.75-4.65c0-4,3.24-6.06,10-6.87V92.35c0-1.35-1.08-2.09-2.56-2.09a4.5,4.5,0,0,0-3.84,2.15l-2.69-2c1.07-1.85,4-3.27,6.53-3.2,4.72.1,6.74,1.82,6.74,7.07v8.26a7.72,7.72,0,0,0,.34,2.52Z"></path><polygon class="cls-4" points="187.31 87.49 191.49 87.49 194.39 99.36 194.45 99.36 197.42 87.49 201.59 87.49 196.57 105.02 192.19 105.02 187.31 87.49 187.31 87.49"></polygon><path class="cls-4" d="M213.66,94.1c-.07-2.43-1.35-3.84-3.37-3.84s-3.3,1.41-3.37,3.84Zm-6.74,2.83c.07,3.64,1.68,5,3.64,5s2.86-.87,3.91-2.09l3,1.89c-1.62,2.49-4,3.57-7.34,3.57-4.55,0-7.42-3.54-7.42-9.1s2.87-9.09,7.62-9.09c4.58,0,7.14,3.84,7.14,8v1.72Z"></path><path class="cls-4" d="M220.94,105V87.49h3.84v1.89c1.55-1.08,3.33-2.22,5.39-2.22,3.5,0,5.19,2.29,5.19,5.86v12h-4.18V93.63c0-2.36-.74-3.1-2.16-3.1a5.29,5.29,0,0,0-3.9,1.85V105Z"></path><polygon class="cls-4" points="250.63 105.02 250.63 80.69 255.27 80.69 255.27 90.39 264.64 90.39 264.64 80.69 269.29 80.69 269.29 105.02 264.64 105.02 264.64 94.57 255.27 94.57 255.27 105.02 250.63 105.02 250.63 105.02"></polygon><path class="cls-4" d="M280.55,90.53c-2.33,0-3.44,1.82-3.44,5.72s1.11,5.73,3.44,5.73,3.43-1.82,3.43-5.73-1.11-5.72-3.43-5.72Zm0-3.37c4.75,0,7.61,3.54,7.61,9.09s-2.86,9.1-7.61,9.1-7.62-3.54-7.62-9.1,2.87-9.09,7.62-9.09Z"></path><path class="cls-4" d="M299.65,92.11a4.77,4.77,0,0,0-3.27-1.85c-1.61,0-2.35.67-2.35,1.72,0,3,8.76,1.71,8.76,8.11,0,3.64-2.77,5.26-6.44,5.26a7.7,7.7,0,0,1-6.64-3.54l2.8-2.09a5.18,5.18,0,0,0,4.08,2.53c1.48,0,2.49-.81,2.49-2,0-3-8.76-1.92-8.76-8,0-3.27,2.76-5.09,5.79-5.09a8,8,0,0,1,6.17,2.66l-2.63,2.29Z"></path><path class="cls-4" d="M310.27,100.5A4.74,4.74,0,0,0,313.5,102c2.49,0,3.91-2,3.91-5.73s-1.42-5.72-3.91-5.72c-1.78,0-2.36.87-3.23,1.55v8.42Zm-4.18-13h4v1.62a6.13,6.13,0,0,1,4.48-2c4.65,0,7,4.11,7,9.57,0,4.31-2.5,8.62-7,8.62a6.06,6.06,0,0,1-4.24-1.95h-.07v8h-4.18V87.49Z"></path><path class="cls-4" d="M329.44,105h-4.18V87.49h4.18V105Zm-4.18-20.75V80.35h4.18v3.91Z"></path><path class="cls-4" d="M334.87,87.49V81.7H339v5.79h3.44v3.37H339v9.91c0,.94.48,1.21,1.52,1.21a9.52,9.52,0,0,0,1.92-.33v3.43a26.22,26.22,0,0,1-3.3.27c-3.1,0-4.31-1.55-4.31-4V90.86h-2.43V87.49Z"></path><path class="cls-4" d="M353.9,96.62c-2.79.55-5.86,1.12-5.86,3.58a1.9,1.9,0,0,0,2,2,7.19,7.19,0,0,0,3.84-1.85V96.62Zm.44,8.39-.27-1.51a9.14,9.14,0,0,1-5.46,1.85,4.48,4.48,0,0,1-4.75-4.65c0-4,3.24-6.06,10-6.87V92.35c0-1.35-1.07-2.09-2.56-2.09a4.5,4.5,0,0,0-3.84,2.15l-2.69-2c1.08-1.85,4-3.27,6.53-3.2,4.72.1,6.74,1.82,6.74,7.07v8.26a7.72,7.72,0,0,0,.34,2.52Z"></path><polygon class="cls-4" points="362.7 105.02 362.7 80.69 366.88 80.69 366.88 105.02 362.7 105.02 362.7 105.02"></polygon></svg>